REM DIRINDEX 1\2\6,1\2\7,1\2\8,1\3\9,1\3\10,1\3\11,1\4\12,1\4\13,1\4\14,1\5\15,1\5\16,1\5\17,1\5\18
REM DIRNAME folder01,folder02,folder03,folder04,folder05,folder06,folder07,folder08,folder09,folder10,folder11,folder12,folder13,folder14,folder15,folder16,folder17,folder18
TITLE ""
FILE "2Q_t_0791-0808.mp3" MP3
  TRACK 01 AUDIO
    TITLE "13:cjc019_3642"
    INDEX 01 00:00:00
  TRACK 02 AUDIO
    TITLE "0:"
    INDEX 01 00:01:15
  TRACK 03 AUDIO
    TITLE "14:cjc019_3643"
    INDEX 01 00:01:73
  TRACK 04 AUDIO
    TITLE "0:"
    INDEX 01 00:05:01
  TRACK 05 AUDIO
    TITLE "13:cjc019_3644"
    INDEX 01 00:05:54
  TRACK 06 AUDIO
    TITLE "0:"
    INDEX 01 00:07:25
  TRACK 07 AUDIO
    TITLE "14:cjc019_3645"
    INDEX 01 00:08:09
  TRACK 08 AUDIO
    TITLE "0:"
    INDEX 01 00:11:01
  TRACK 09 AUDIO
    TITLE "13:cjc019_3646"
    INDEX 01 00:11:42
  TRACK 10 AUDIO
    TITLE "0:"
    INDEX 01 00:13:10
  TRACK 11 AUDIO
    TITLE "14:cjc019_3647"
    INDEX 01 00:13:63
  TRACK 12 AUDIO
    TITLE "0:"
    INDEX 01 00:15:01
  TRACK 13 AUDIO
    TITLE "13:cjc019_3648"
    INDEX 01 00:15:56
  TRACK 14 AUDIO
    TITLE "0:"
    INDEX 01 00:17:04
  TRACK 15 AUDIO
    TITLE "14:cjc019_3649"
    INDEX 01 00:17:59
  TRACK 16 AUDIO
    TITLE "0:"
    INDEX 01 00:21:06
  TRACK 17 AUDIO
    TITLE "13:cjc019_3650"
    INDEX 01 00:21:55
  TRACK 18 AUDIO
    TITLE "0:"
    INDEX 01 00:23:18
  TRACK 19 AUDIO
    TITLE "14:cjc019_3651"
    INDEX 01 00:24:00
  TRACK 20 AUDIO
    TITLE "0:"
    INDEX 01 00:25:45
  TRACK 21 AUDIO
    TITLE "13:cjc019_3652"
    INDEX 01 00:26:20
  TRACK 22 AUDIO
    TITLE "0:"
    INDEX 01 00:27:43
  TRACK 23 AUDIO
    TITLE "14:cjc019_3653"
    INDEX 01 00:28:23
  TRACK 24 AUDIO
    TITLE "0:"
    INDEX 01 00:31:04
  TRACK 25 AUDIO
    TITLE "13:cjc019_3654"
    INDEX 01 00:31:61
  TRACK 26 AUDIO
    TITLE "0:"
    INDEX 01 00:33:01
  TRACK 27 AUDIO
    TITLE "14:cjc019_3655"
    INDEX 01 00:33:52
  TRACK 28 AUDIO
    TITLE "0:"
    INDEX 01 00:37:24
  TRACK 29 AUDIO
    TITLE "13:cjc019_3656"
    INDEX 01 00:38:06
  TRACK 30 AUDIO
    TITLE "0:"
    INDEX 01 00:39:25
  TRACK 31 AUDIO
    TITLE "14:cjc019_3657"
    INDEX 01 00:40:05
  TRACK 32 AUDIO
    TITLE "0:"
    INDEX 01 00:42:33
  TRACK 33 AUDIO
    TITLE "13:cjc019_3658"
    INDEX 01 00:43:11
  TRACK 34 AUDIO
    TITLE "0:"
    INDEX 01 00:44:34
  TRACK 35 AUDIO
    TITLE "14:cjc019_3659"
    INDEX 01 00:45:14
  TRACK 36 AUDIO
    TITLE "0:"
    INDEX 01 00:46:58
  TRACK 37 AUDIO
    TITLE "13:cjc019_3660"
    INDEX 01 00:47:40
  TRACK 38 AUDIO
    TITLE "0:"
    INDEX 01 00:48:61
  TRACK 39 AUDIO
    TITLE "14:cjc019_3661"
    INDEX 01 00:49:39
  TRACK 40 AUDIO
    TITLE "0:"
    INDEX 01 00:52:04
  TRACK 41 AUDIO
    TITLE "13:cjc019_3662"
    INDEX 01 00:52:55
  TRACK 42 AUDIO
    TITLE "0:"
    INDEX 01 00:54:21
  TRACK 43 AUDIO
    TITLE "14:cjc019_3663"
    INDEX 01 00:55:04
  TRACK 44 AUDIO
    TITLE "0:"
    INDEX 01 00:56:18
  TRACK 45 AUDIO
    TITLE "13:cjc019_3664"
    INDEX 01 00:56:74
  TRACK 46 AUDIO
    TITLE "0:"
    INDEX 01 00:58:24
  TRACK 47 AUDIO
    TITLE "14:cjc019_3665"
    INDEX 01 00:59:04
  TRACK 48 AUDIO
    TITLE "0:"
    INDEX 01 01:01:40
  TRACK 49 AUDIO
    TITLE "13:cjc019_3666"
    INDEX 01 01:02:24
  TRACK 50 AUDIO
    TITLE "0:"
    INDEX 01 01:03:55
  TRACK 51 AUDIO
    TITLE "14:cjc019_3667"
    INDEX 01 01:04:41
  TRACK 52 AUDIO
    TITLE "0:"
    INDEX 01 01:06:69
  TRACK 53 AUDIO
    TITLE "13:cjc019_3668"
    INDEX 01 01:07:51
  TRACK 54 AUDIO
    TITLE "0:"
    INDEX 01 01:08:72
  TRACK 55 AUDIO
    TITLE "14:cjc019_3669"
    INDEX 01 01:09:56
  TRACK 56 AUDIO
    TITLE "0:"
    INDEX 01 01:12:36
  TRACK 57 AUDIO
    TITLE "13:cjc019_3670"
    INDEX 01 01:13:18
  TRACK 58 AUDIO
    TITLE "0:"
    INDEX 01 01:14:27
  TRACK 59 AUDIO
    TITLE "14:cjc019_3671"
    INDEX 01 01:15:07
  TRACK 60 AUDIO
    TITLE "0:"
    INDEX 01 01:17:51
  TRACK 61 AUDIO
    TITLE "13:cjc019_3672"
    INDEX 01 01:18:31
  TRACK 62 AUDIO
    TITLE "0:"
    INDEX 01 01:19:48
  TRACK 63 AUDIO
    TITLE "14:cjc019_3673"
    INDEX 01 01:20:26
  TRACK 64 AUDIO
    TITLE "0:"
    INDEX 01 01:23:40
  TRACK 65 AUDIO
    TITLE "13:cjc019_3674"
    INDEX 01 01:24:22
  TRACK 66 AUDIO
    TITLE "0:"
    INDEX 01 01:25:58
  TRACK 67 AUDIO
    TITLE "14:cjc019_3675"
    INDEX 01 01:26:38
  TRACK 68 AUDIO
    TITLE "0:"
    INDEX 01 01:28:74
  TRACK 69 AUDIO
    TITLE "13:cjc019_3676"
    INDEX 01 01:29:48
  TRACK 70 AUDIO
    TITLE "0:"
    INDEX 01 01:31:00
  TRACK 71 AUDIO
    TITLE "14:cjc019_3677"
    INDEX 01 01:31:55
  TRACK 72 AUDIO
    TITLE "0:"
    INDEX 01 01:34:52
